<mxfile host="app.diagrams.net" modified="2024-03-01T06:35:24.229Z" agent="Mozilla/5.0 (Macintosh; Intel Mac OS X 10_15_7) AppleWebKit/605.1.15 (KHTML, like Gecko) Version/17.3.1 Safari/605.1.15" etag="pLZI7wWxKiyeEDAKHChi" version="24.0.0" type="github">
  <diagram name="Page-1" id="JMm6PtPlRwwBxD2z2W0a">
    <mxGraphModel dx="2575" dy="1187" grid="1" gridSize="10" guides="1" tooltips="1" connect="1" arrows="1" fold="1" page="1" pageScale="1" pageWidth="827" pageHeight="1169" math="0" shadow="0">
      <root>
        <mxCell id="0" />
        <mxCell id="1" parent="0" />
        <mxCell id="de_9uCMgTR183DCYXGKh-1" value="company" style="rounded=0;whiteSpace=wrap;html=1;" vertex="1" parent="1">
          <mxGeometry x="-220" y="290" width="120" height="60" as="geometry" />
        </mxCell>
        <mxCell id="de_9uCMgTR183DCYXGKh-9" style="rounded=0;orthogonalLoop=1;jettySize=auto;html=1;" edge="1" parent="1" source="de_9uCMgTR183DCYXGKh-4" target="de_9uCMgTR183DCYXGKh-6">
          <mxGeometry relative="1" as="geometry" />
        </mxCell>
        <mxCell id="de_9uCMgTR183DCYXGKh-10" style="rounded=0;orthogonalLoop=1;jettySize=auto;html=1;exitX=0.5;exitY=1;exitDx=0;exitDy=0;entryX=0.5;entryY=0;entryDx=0;entryDy=0;" edge="1" parent="1" source="de_9uCMgTR183DCYXGKh-4" target="de_9uCMgTR183DCYXGKh-7">
          <mxGeometry relative="1" as="geometry" />
        </mxCell>
        <mxCell id="de_9uCMgTR183DCYXGKh-4" value="construction teams" style="whiteSpace=wrap;html=1;" vertex="1" parent="1">
          <mxGeometry x="-230" y="510" width="120" height="60" as="geometry" />
        </mxCell>
        <mxCell id="de_9uCMgTR183DCYXGKh-6" value="&lt;u&gt;id&lt;/u&gt;" style="ellipse;whiteSpace=wrap;html=1;" vertex="1" parent="1">
          <mxGeometry x="-340" y="620" width="90" height="60" as="geometry" />
        </mxCell>
        <mxCell id="de_9uCMgTR183DCYXGKh-7" value="name" style="ellipse;whiteSpace=wrap;html=1;" vertex="1" parent="1">
          <mxGeometry x="-220" y="620" width="90" height="60" as="geometry" />
        </mxCell>
        <mxCell id="de_9uCMgTR183DCYXGKh-8" value="member number" style="ellipse;whiteSpace=wrap;html=1;" vertex="1" parent="1">
          <mxGeometry x="-110" y="620" width="100" height="60" as="geometry" />
        </mxCell>
        <mxCell id="de_9uCMgTR183DCYXGKh-11" style="rounded=0;orthogonalLoop=1;jettySize=auto;html=1;entryX=0.28;entryY=-0.033;entryDx=0;entryDy=0;entryPerimeter=0;" edge="1" parent="1" source="de_9uCMgTR183DCYXGKh-4" target="de_9uCMgTR183DCYXGKh-8">
          <mxGeometry relative="1" as="geometry" />
        </mxCell>
        <mxCell id="de_9uCMgTR183DCYXGKh-25" style="rounded=0;orthogonalLoop=1;jettySize=auto;html=1;entryX=0.5;entryY=0;entryDx=0;entryDy=0;" edge="1" parent="1" source="de_9uCMgTR183DCYXGKh-12" target="de_9uCMgTR183DCYXGKh-19">
          <mxGeometry relative="1" as="geometry" />
        </mxCell>
        <mxCell id="de_9uCMgTR183DCYXGKh-12" value="workers" style="rounded=0;whiteSpace=wrap;html=1;" vertex="1" parent="1">
          <mxGeometry x="230" y="510" width="120" height="60" as="geometry" />
        </mxCell>
        <mxCell id="de_9uCMgTR183DCYXGKh-14" style="rounded=0;orthogonalLoop=1;jettySize=auto;html=1;entryX=1;entryY=0.5;entryDx=0;entryDy=0;" edge="1" parent="1" source="de_9uCMgTR183DCYXGKh-13" target="de_9uCMgTR183DCYXGKh-4">
          <mxGeometry relative="1" as="geometry" />
        </mxCell>
        <mxCell id="de_9uCMgTR183DCYXGKh-13" value="work" style="rhombus;whiteSpace=wrap;html=1;" vertex="1" parent="1">
          <mxGeometry x="-10" y="505" width="80" height="80" as="geometry" />
        </mxCell>
        <mxCell id="de_9uCMgTR183DCYXGKh-16" style="rounded=0;orthogonalLoop=1;jettySize=auto;html=1;exitX=1;exitY=0.5;exitDx=0;exitDy=0;entryX=-0.017;entryY=0.65;entryDx=0;entryDy=0;entryPerimeter=0;" edge="1" parent="1" source="de_9uCMgTR183DCYXGKh-13" target="de_9uCMgTR183DCYXGKh-12">
          <mxGeometry relative="1" as="geometry" />
        </mxCell>
        <mxCell id="de_9uCMgTR183DCYXGKh-17" value="&lt;u&gt;id&lt;/u&gt;" style="ellipse;whiteSpace=wrap;html=1;" vertex="1" parent="1">
          <mxGeometry x="100" y="615" width="80" height="50" as="geometry" />
        </mxCell>
        <mxCell id="de_9uCMgTR183DCYXGKh-18" value="name" style="ellipse;whiteSpace=wrap;html=1;" vertex="1" parent="1">
          <mxGeometry x="190" y="620" width="80" height="60" as="geometry" />
        </mxCell>
        <mxCell id="de_9uCMgTR183DCYXGKh-19" value="phone number" style="ellipse;whiteSpace=wrap;html=1;" vertex="1" parent="1">
          <mxGeometry x="280" y="620" width="90" height="60" as="geometry" />
        </mxCell>
        <mxCell id="de_9uCMgTR183DCYXGKh-20" value="salary" style="ellipse;whiteSpace=wrap;html=1;" vertex="1" parent="1">
          <mxGeometry x="380" y="615" width="90" height="65" as="geometry" />
        </mxCell>
        <mxCell id="de_9uCMgTR183DCYXGKh-21" style="rounded=0;orthogonalLoop=1;jettySize=auto;html=1;entryX=0.6;entryY=0.04;entryDx=0;entryDy=0;entryPerimeter=0;" edge="1" parent="1" source="de_9uCMgTR183DCYXGKh-12" target="de_9uCMgTR183DCYXGKh-17">
          <mxGeometry relative="1" as="geometry" />
        </mxCell>
        <mxCell id="de_9uCMgTR183DCYXGKh-22" style="rounded=0;orthogonalLoop=1;jettySize=auto;html=1;entryX=0.6;entryY=-0.083;entryDx=0;entryDy=0;entryPerimeter=0;" edge="1" parent="1" source="de_9uCMgTR183DCYXGKh-12" target="de_9uCMgTR183DCYXGKh-18">
          <mxGeometry relative="1" as="geometry" />
        </mxCell>
        <mxCell id="de_9uCMgTR183DCYXGKh-24" style="rounded=0;orthogonalLoop=1;jettySize=auto;html=1;exitX=0.5;exitY=1;exitDx=0;exitDy=0;entryX=0.433;entryY=0.015;entryDx=0;entryDy=0;entryPerimeter=0;" edge="1" parent="1" source="de_9uCMgTR183DCYXGKh-12" target="de_9uCMgTR183DCYXGKh-20">
          <mxGeometry relative="1" as="geometry">
            <Array as="points">
              <mxPoint x="310" y="570" />
            </Array>
          </mxGeometry>
        </mxCell>
        <mxCell id="de_9uCMgTR183DCYXGKh-31" style="rounded=0;orthogonalLoop=1;jettySize=auto;html=1;exitX=0.5;exitY=0;exitDx=0;exitDy=0;entryX=0.5;entryY=1;entryDx=0;entryDy=0;" edge="1" parent="1" source="de_9uCMgTR183DCYXGKh-26" target="de_9uCMgTR183DCYXGKh-27">
          <mxGeometry relative="1" as="geometry" />
        </mxCell>
        <mxCell id="de_9uCMgTR183DCYXGKh-32" style="rounded=0;orthogonalLoop=1;jettySize=auto;html=1;entryX=0.5;entryY=1;entryDx=0;entryDy=0;" edge="1" parent="1" source="de_9uCMgTR183DCYXGKh-26" target="de_9uCMgTR183DCYXGKh-28">
          <mxGeometry relative="1" as="geometry" />
        </mxCell>
        <mxCell id="de_9uCMgTR183DCYXGKh-33" style="rounded=0;orthogonalLoop=1;jettySize=auto;html=1;entryX=0.5;entryY=1;entryDx=0;entryDy=0;" edge="1" parent="1" source="de_9uCMgTR183DCYXGKh-26" target="de_9uCMgTR183DCYXGKh-29">
          <mxGeometry relative="1" as="geometry" />
        </mxCell>
        <mxCell id="de_9uCMgTR183DCYXGKh-34" style="rounded=0;orthogonalLoop=1;jettySize=auto;html=1;entryX=0.5;entryY=1;entryDx=0;entryDy=0;" edge="1" parent="1" source="de_9uCMgTR183DCYXGKh-26" target="de_9uCMgTR183DCYXGKh-30">
          <mxGeometry relative="1" as="geometry" />
        </mxCell>
        <mxCell id="de_9uCMgTR183DCYXGKh-26" value="vehicle" style="rounded=0;whiteSpace=wrap;html=1;" vertex="1" parent="1">
          <mxGeometry x="414" y="220" width="120" height="60" as="geometry" />
        </mxCell>
        <mxCell id="de_9uCMgTR183DCYXGKh-27" value="plate number" style="ellipse;whiteSpace=wrap;html=1;" vertex="1" parent="1">
          <mxGeometry x="270" y="110" width="90" height="50" as="geometry" />
        </mxCell>
        <mxCell id="de_9uCMgTR183DCYXGKh-28" value="model" style="ellipse;whiteSpace=wrap;html=1;" vertex="1" parent="1">
          <mxGeometry x="390" y="105" width="80" height="55" as="geometry" />
        </mxCell>
        <mxCell id="de_9uCMgTR183DCYXGKh-29" value="color" style="ellipse;whiteSpace=wrap;html=1;" vertex="1" parent="1">
          <mxGeometry x="480" y="100" width="90" height="60" as="geometry" />
        </mxCell>
        <mxCell id="de_9uCMgTR183DCYXGKh-30" value="purchase date" style="ellipse;whiteSpace=wrap;html=1;" vertex="1" parent="1">
          <mxGeometry x="580" y="105" width="100" height="60" as="geometry" />
        </mxCell>
      </root>
    </mxGraphModel>
  </diagram>
</mxfile>
